<svg xmlns="http://www.w3.org/2000/svg" viewBox="0 0 509.287 509.287"><circle cx="254.644" cy="254.644" r="254.644" fill="#3eb9e3"/><path d="M176.996 256a47.555 47.555 0 0 0-47.47-43.062c-18.988 0-35.264 11.189-43.062 27.126-2.034-1.017-4.069-1.695-6.442-1.695-7.121 0-13.224 5.764-13.224 13.224 0 1.695.339 3.052 1.017 4.747-14.241.339-25.43 11.868-25.43 26.109 0 14.58 11.868 26.109 26.109 26.109h105.791c14.58 0 26.109-11.868 26.109-26.109-.002-13.903-10.174-25.093-23.398-26.449z" fill="#fcfcfd"/><path d="M394.003 196.323c0-76.97-62.389-139.359-139.359-139.359s-139.359 62.389-139.359 139.359c0 33.568 11.868 64.763 31.873 88.837l68.493 94.262h77.309l68.493-94.262c20.343-24.074 32.55-54.93 32.55-88.837z" fill="#f1f3f7"/><path d="M350.262 196.323c0-76.97-42.723-139.359-95.619-139.359s-95.619 62.389-95.619 139.359c0 33.568 8.138 64.763 22.04 88.837l47.131 94.262h53.234l47.131-94.262c13.565-24.074 21.702-54.93 21.702-88.837z" fill="#f0582f"/><path d="M298.045 196.323c0-76.97-19.327-139.359-43.401-139.359s-43.401 62.389-43.401 139.359c0 33.568 3.73 64.763 9.833 88.837l21.362 94.262h24.074l21.362-94.262c6.441-24.074 10.171-54.93 10.171-88.837z" fill="#f1f3f7"/><path d="M293.298 379.423h-5.086l-9.155 33.229h-11.189l3.391-33.229h-5.086l-3.391 33.229h-15.936l-3.391-33.229h-5.086l3.391 33.229h-11.19l-9.155-33.229h-5.086l9.155 33.907 5.764 30.177c1.017 4.747 5.425 8.477 10.172 8.477h26.448c5.086 0 9.155-3.391 10.172-8.477l5.764-30.177 9.494-33.907z" fill="#8e342d"/><path d="M449.271 196.323a47.554 47.554 0 0 0-47.47-43.062c-18.988 0-35.264 11.189-43.062 27.126-2.034-1.017-4.069-1.695-6.442-1.695-7.121 0-13.224 5.764-13.224 13.224 0 1.695.339 3.052 1.017 4.747-14.241.339-25.43 11.868-25.43 26.109 0 14.58 11.868 26.109 26.109 26.109H446.56c14.58 0 26.109-11.868 26.109-26.109.338-13.903-10.174-25.093-23.398-26.449z" fill="#fff"/></svg>