<?xml version="1.0" encoding="iso-8859-1"?>
<!-- Generator: Adobe Illustrator 19.0.0, SVG Export Plug-In . SVG Version: 6.00 Build 0)  -->
<svg version="1.1" id="Layer_1" xmlns="http://www.w3.org/2000/svg" xmlns:xlink="http://www.w3.org/1999/xlink" x="0px" y="0px"
	 viewBox="0 0 509.287 509.287" style="enable-background:new 0 0 509.287 509.287;" xml:space="preserve">
<circle style="fill:#3EB9E3;" cx="254.644" cy="254.644" r="254.644"/>
<path style="fill:#FCFCFD;" d="M176.996,256c-2.374-24.413-22.718-43.062-47.47-43.062c-18.988,0-35.264,11.189-43.062,27.126
	c-2.034-1.017-4.069-1.695-6.442-1.695c-7.121,0-13.224,5.764-13.224,13.224c0,1.695,0.339,3.052,1.017,4.747
	c-14.241,0.339-25.43,11.868-25.43,26.109c0,14.58,11.868,26.109,26.109,26.109h105.791c14.58,0,26.109-11.868,26.109-26.109
	C200.392,268.546,190.22,257.356,176.996,256z"/>
<path style="fill:#F1F3F7;" d="M394.003,196.323c0-76.97-62.389-139.359-139.359-139.359s-139.359,62.389-139.359,139.359
	c0,33.568,11.868,64.763,31.873,88.837l0,0l68.493,94.262h77.309l68.493-94.262l0,0C381.796,261.086,394.003,230.23,394.003,196.323
	z"/>
<path style="fill:#F0582F;" d="M350.262,196.323c0-76.97-42.723-139.359-95.619-139.359s-95.619,62.389-95.619,139.359
	c0,33.568,8.138,64.763,22.04,88.837l0,0l47.131,94.262h53.234l47.131-94.262l0,0C342.125,261.086,350.262,230.23,350.262,196.323z"
	/>
<path style="fill:#F1F3F7;" d="M298.045,196.323c0-76.97-19.327-139.359-43.401-139.359s-43.401,62.389-43.401,139.359
	c0,33.568,3.73,64.763,9.833,88.837l0,0l21.362,94.262h24.074l21.362-94.262l0,0C294.315,261.086,298.045,230.23,298.045,196.323z"
	/>
<path style="fill:#8E342D;" d="M293.298,379.423h-5.086l-9.155,33.229h-11.189l3.391-33.229h-5.086l-3.391,33.229h-15.936
	l-3.391-33.229h-5.086l3.391,33.229H230.57l-9.155-33.229h-5.086l9.155,33.907l5.764,30.177c1.017,4.747,5.425,8.477,10.172,8.477
	h26.448c5.086,0,9.155-3.391,10.172-8.477l5.764-30.177L293.298,379.423z"/>
<path style="fill:#FFFFFF;" d="M449.271,196.323c-2.373-24.413-22.718-43.062-47.47-43.062c-18.988,0-35.264,11.189-43.062,27.126
	c-2.034-1.017-4.069-1.695-6.442-1.695c-7.121,0-13.224,5.764-13.224,13.224c0,1.695,0.339,3.052,1.017,4.747
	c-14.241,0.339-25.43,11.868-25.43,26.109c0,14.58,11.868,26.109,26.109,26.109h105.791c14.58,0,26.109-11.868,26.109-26.109
	C473.007,208.869,462.495,197.679,449.271,196.323z"/>
<g>
</g>
<g>
</g>
<g>
</g>
<g>
</g>
<g>
</g>
<g>
</g>
<g>
</g>
<g>
</g>
<g>
</g>
<g>
</g>
<g>
</g>
<g>
</g>
<g>
</g>
<g>
</g>
<g>
</g>
</svg>
